<svg width="121" height="120" viewBox="0 0 121 120" fill="none" xmlns="http://www.w3.org/2000/svg">
<path d="M41.5001 56V40C41.5001 34.6957 43.6072 29.6086 47.358 25.8579C51.1087 22.1071 56.1958 20 61.5001 20C66.8044 20 71.8915 22.1071 75.6422 25.8579C79.393 29.6086 81.5001 34.6957 81.5001 40V56M28.5 100H94.5001C96.1569 100 97.5001 98.6568 97.5001 97V59C97.5001 57.3431 96.1569 56 94.5001 56H28.5001C26.8433 56 25.5001 57.3431 25.5001 59L25.5 97C25.5 98.6568 26.8432 100 28.5 100Z" stroke="currentColor" stroke-width="6.5" stroke-linecap="round" stroke-linejoin="round"/>
</svg>
